<svg xmlns="http://www.w3.org/2000/svg" viewBox="0 0 500 460" font-family="Inter, -apple-system, sans-serif">
  <!-- Title -->
  <text x="280" y="28" text-anchor="middle" font-size="16" font-weight="700" fill="#2D2D2D">ROC Curve</text>

  <!-- Axes -->
  <line x1="70" y1="380" x2="450" y2="380" stroke="#2D2D2D" stroke-width="1.5"/>
  <line x1="70" y1="380" x2="70" y2="50" stroke="#2D2D2D" stroke-width="1.5"/>

  <!-- Axis labels -->
  <text x="260" y="420" text-anchor="middle" font-size="13" fill="#2D2D2D">False Positive Rate</text>
  <text x="25" y="215" text-anchor="middle" font-size="13" fill="#2D2D2D" transform="rotate(-90, 25, 215)">True Positive Rate (Recall)</text>

  <!-- Tick marks and labels -->
  <text x="70" y="400" text-anchor="middle" font-size="11" fill="#8C8C8C">0.0</text>
  <text x="165" y="400" text-anchor="middle" font-size="11" fill="#8C8C8C">0.25</text>
  <text x="260" y="400" text-anchor="middle" font-size="11" fill="#8C8C8C">0.50</text>
  <text x="355" y="400" text-anchor="middle" font-size="11" fill="#8C8C8C">0.75</text>
  <text x="450" y="400" text-anchor="middle" font-size="11" fill="#8C8C8C">1.0</text>

  <text x="60" y="384" text-anchor="end" font-size="11" fill="#8C8C8C">0.0</text>
  <text x="60" y="302" text-anchor="end" font-size="11" fill="#8C8C8C">0.25</text>
  <text x="60" y="218" text-anchor="end" font-size="11" fill="#8C8C8C">0.50</text>
  <text x="60" y="134" text-anchor="end" font-size="11" fill="#8C8C8C">0.75</text>
  <text x="60" y="54" text-anchor="end" font-size="11" fill="#8C8C8C">1.0</text>

  <!-- Grid lines -->
  <line x1="70" y1="297" x2="450" y2="297" stroke="#E0E0E0" stroke-width="0.5"/>
  <line x1="70" y1="215" x2="450" y2="215" stroke="#E0E0E0" stroke-width="0.5"/>
  <line x1="70" y1="132" x2="450" y2="132" stroke="#E0E0E0" stroke-width="0.5"/>
  <line x1="165" y1="50" x2="165" y2="380" stroke="#E0E0E0" stroke-width="0.5"/>
  <line x1="260" y1="50" x2="260" y2="380" stroke="#E0E0E0" stroke-width="0.5"/>
  <line x1="355" y1="50" x2="355" y2="380" stroke="#E0E0E0" stroke-width="0.5"/>

  <!-- AUC shaded area (under the ROC curve, down to the x-axis) -->
  <path d="M70,380 C90,250 100,170 146,136 C200,95 260,74 320,64 C370,57 410,55 450,54 L450,380 Z" fill="#4A90D9" fill-opacity="0.12"/>

  <!-- Random baseline diagonal -->
  <line x1="70" y1="380" x2="450" y2="50" stroke="#8C8C8C" stroke-width="1.5" stroke-dasharray="6,4"/>
  <text x="280" y="195" text-anchor="middle" font-size="11" fill="#8C8C8C" transform="rotate(-40, 280, 195)">Random (AUC = 0.5)</text>

  <!-- ROC curve (monotonic, bows toward the top-left, ends at top-right (1.0, 1.0)) -->
  <path d="M70,380 C90,250 100,170 146,136 C200,95 260,74 320,64 C370,57 410,55 450,54" fill="none" stroke="#4A90D9" stroke-width="3" stroke-linecap="round"/>

  <!-- AUC label -->
  <text x="240" y="280" text-anchor="middle" font-size="14" font-weight="600" fill="#4A90D9">AUC = 0.91</text>
  <text x="240" y="300" text-anchor="middle" font-size="11" fill="#8C8C8C">(shaded area)</text>

  <!-- Legend -->
  <line x1="310" y1="440" x2="340" y2="440" stroke="#4A90D9" stroke-width="3"/>
  <text x="345" y="444" font-size="11" fill="#2D2D2D">Good model</text>
  <line x1="160" y1="440" x2="190" y2="440" stroke="#8C8C8C" stroke-width="1.5" stroke-dasharray="6,4"/>
  <text x="195" y="444" font-size="11" fill="#8C8C8C">Random chance</text>
</svg>
